<?xml version="1.0" encoding="utf-8"?>
<!-- Generator: Adobe Illustrator 25.0.1, SVG Export Plug-In . SVG Version: 6.00 Build 0)  -->
<svg version="1.1" id="圖層_1" xmlns="http://www.w3.org/2000/svg" xmlns:xlink="http://www.w3.org/1999/xlink" x="0px" y="0px"
	 viewBox="0 0 24 25" style="enable-background:new 0 0 24 25;" xml:space="preserve">
<style type="text/css">
	.st0{fill:#333333;fill-opacity:0.8;}
</style>
<path class="st0" d="M17.6,10.5c0.6,0.2,0.7,1,0.1,1.3l-4.6,2.8c-0.1,0.1-0.3,0.1-0.4,0.1c-0.1,0-0.2,0-0.3,0l-1.8-0.7l-1.1,2.9
	c-0.1,0.2-0.3,0.4-0.5,0.4H6.2v0.8c0,0.3-0.3,0.6-0.6,0.6c-0.3,0-0.6-0.2-0.6-0.6v-2.6c0-0.3,0.2-0.6,0.6-0.6c0.3,0,0.6,0.3,0.6,0.6
	v0.8h2.3l1-2.6l-4-1.6c-0.2-0.1-0.4-0.2-0.5-0.4C5,11.2,5,11,5.1,10.8l2.3-3.9c0.1-0.3,0.4-0.4,0.7-0.4c0.1,0,0.2,0,0.3,0.1
	L17.6,10.5z M12.6,13.5l3.8-2.3L8.3,7.7L6.3,11L12.6,13.5z M19,13.2c0,0.1,0,0.2,0,0.3l-1,2.2c-0.1,0.2-0.3,0.3-0.5,0.2l-2.9-1.2
	l3.4-2l0.9,0.4C18.9,13,18.9,13,19,13.2z"/>
</svg>
